<?xml version="1.0" encoding="utf-8"?>
<!-- Svg Vector Icons : http://www.onlinewebfonts.com/icon -->
<!DOCTYPE svg PUBLIC "-//W3C//DTD SVG 1.1//EN" "http://www.w3.org/Graphics/SVG/1.1/DTD/svg11.dtd">
<svg version="1.1" xmlns="http://www.w3.org/2000/svg" xmlns:xlink="http://www.w3.org/1999/xlink" x="0px" y="0px" fill="white" viewBox="0 0 1000 1000" enable-background="new 0 0 1000 1000" xml:space="preserve">
<metadata> Svg Vector Icons : http://www.onlinewebfonts.com/icon </metadata>
<g><g transform="translate(0.000000,511.000000) scale(0.100000,-0.100000)"><path d="M4789.5,4366C4523.4,4222.4,329.7,1795.4,262.7,1747.5c-90-65.1-162.7-197.1-162.7-294.8c1.9-151.2,141.6-329.2,277.5-356c38.3-5.7,103.4-7.7,145.5-1.9c53.6,7.7,698.6,369.4,2266.2,1274.8C3993.2,3066.3,4988.5,3634.8,5000,3634.8s997.2-564.6,2191.6-1253.7s2193.5-1263.3,2220.3-1272.9c65.1-24.9,183.7-24.9,252.7,1.9c122.5,45.9,235.4,208.6,235.4,342.6c0,82.3-55.5,206.7-116.7,260.3c-24.9,23-1079.5,639.3-2342.8,1368.6L5143.6,4408.1l-124.4,7.7C4910,4421.5,4881.3,4415.7,4789.5,4366z"/><path d="M1114.5,1004.9L817.8,828.8L812-1682.5l-3.8-2511.3h306.2h306.3v2689.3c0,1479.6-1.9,2689.3-3.8,2687.3C1413,1182.9,1277.1,1102.5,1114.5,1004.9z"/><path d="M8579.3-1506.4v-2687.4h306.3h306.3l-3.8,2520.8l-5.7,2522.7l-300.5,164.6L8579.3,1181V-1506.4z"/><path d="M3612.3-842.2c-42.1-19.1-99.5-57.4-126.3-86.1c-78.5-78.5-897.7-1272.9-947.5-1380c-44-93.8-45.9-109.1-45.9-647c0-616.3,5.7-645,124.4-694.8c97.6-40.2,4668.4-40.2,4766,0c122.5,51.7,126.3,78.5,120.6,725.4l-5.7,578l-51.7,91.9c-65.1,116.8-861.3,1225-941.7,1313.1c-32.5,34.5-93.8,80.4-135.9,99.5c-72.7,34.5-151.2,36.4-1378.1,36.4C3769.3-805.8,3685-809.6,3612.3-842.2z M6292-1131.2c63.2-59.3,361.8-476.6,350.3-490c-5.7-3.8-752.2-5.7-1657.6-3.8l-1649.9,5.7l164.6,245c118.7,179.9,179.9,252.7,223.9,271.8c51.7,23,271.8,26.8,1290.1,23l1226.9-3.8L6292-1131.2z M3901.3-2495.9c68.9-80.4,63.2-187.6-13.4-250.8l-59.3-49.8h-468.9h-468.9l-55.5,55.5c-59.3,59.3-72.7,143.6-34.5,214.4c44,84.2,112.9,93.8,597.2,88l457.5-3.8L3901.3-2495.9z M7115-2459.6c120.6-49.8,143.6-185.7,49.8-281.4l-55.5-55.5h-468.9h-468.9l-59.3,49.8c-45.9,38.3-59.3,65.1-59.3,120.6c0,78.5,42.1,149.3,103.4,174.2c21,9.6,231.6,17.2,467,17.2C6948.5-2432.8,7065.3-2438.5,7115-2459.6z"/><path d="M2517.5-1537c-86.1-93.8-68.9-220.1,34.5-273.7c105.3-55.5,134-40.2,252.7,132.1c59.3,90,109.1,166.5,109.1,172.3s-80.4,11.5-178,11.5C2574.9-1494.9,2551.9-1498.7,2517.5-1537z"/><path d="M7155.2-1623.1c49.8-72.7,105.3-149.3,120.6-172.3c84.2-118.7,296.7,24.9,258.4,174.2c-24.9,97.6-88.1,126.3-289,126.3h-181.8L7155.2-1623.1z"/><path d="M2779.7-3906.6c0-126.3,32.5-210.5,99.5-256.5c67-47.9,817.3-44,890,1.9c67,44,101.4,135.9,101.4,264.1v105.3h-545.5h-545.5V-3906.6z"/><path d="M6129.3-3897c0-124.4,36.4-222,97.6-266.1c67-45.9,828.8-45.9,895.8,0c61.2,44,97.6,141.7,97.6,266.1v105.3h-545.5h-545.5V-3897z"/></g></g>
</svg>